<?xml version="1.0" encoding="UTF-8" standalone="no"?>
<svg
   xmlns:dc="http://purl.org/dc/elements/1.1/"
   xmlns:cc="http://creativecommons.org/ns#"
   xmlns:rdf="http://www.w3.org/1999/02/22-rdf-syntax-ns#"
   xmlns:svg="http://www.w3.org/2000/svg"
   xmlns="http://www.w3.org/2000/svg"
   xmlns:xlink="http://www.w3.org/1999/xlink"
   xmlns:sodipodi="http://sodipodi.sourceforge.net/DTD/sodipodi-0.dtd"
   xmlns:inkscape="http://www.inkscape.org/namespaces/inkscape"
   inkscape:version="1.0.2 (e86c870879, 2021-01-15)"
   sodipodi:docname="icon_round.svg"
   id="SVGRoot"
   version="1.1"
   viewBox="0 0 512.0 512.0"
   height="512.0px"
   width="512.0px"
   inkscape:export-filename="/home/user/dev/python/pw-py/image/icon.png"
   inkscape:export-xdpi="96"
   inkscape:export-ydpi="96">
  <defs
     id="defs1402">
    <linearGradient
       inkscape:collect="always"
       id="linearGradient2413">
      <stop
         style="stop-color:#077c11;stop-opacity:1"
         offset="0"
         id="stop2409" />
      <stop
         style="stop-color:#089614;stop-opacity:0.00002133"
         offset="1"
         id="stop2411" />
    </linearGradient>
    <linearGradient
       inkscape:collect="always"
       xlink:href="#linearGradient2413"
       id="linearGradient2415"
       x1="203.03185"
       y1="60"
       x2="420"
       y2="625.22137"
       gradientUnits="userSpaceOnUse" />
  </defs>
  <sodipodi:namedview
     id="base"
     pagecolor="#ffffff"
     bordercolor="#666666"
     borderopacity="1.0"
     inkscape:pageopacity="0.0"
     inkscape:pageshadow="2"
     inkscape:zoom="0.45254834"
     inkscape:cx="-208.14428"
     inkscape:cy="84.264985"
     inkscape:document-units="px"
     inkscape:current-layer="layer1"
     inkscape:document-rotation="0"
     showgrid="true"
     inkscape:window-width="1920"
     inkscape:window-height="1008"
     inkscape:window-x="0"
     inkscape:window-y="0"
     inkscape:window-maximized="1">
    <inkscape:grid
       type="xygrid"
       id="grid1972" />
    <sodipodi:guide
       position="180,512"
       orientation="0.93358043,0.35836795"
       id="guide2209"
       inkscape:label=""
       inkscape:locked="false"
       inkscape:color="rgb(0,0,255)" />
  </sodipodi:namedview>
  <metadata
     id="metadata1405">
    <rdf:RDF>
      <cc:Work
         rdf:about="">
        <dc:format>image/svg+xml</dc:format>
        <dc:type
           rdf:resource="http://purl.org/dc/dcmitype/StillImage" />
        <dc:title></dc:title>
      </cc:Work>
    </rdf:RDF>
  </metadata>
  <g
     inkscape:label="Layer 1"
     inkscape:groupmode="layer"
     id="layer1">
    <circle
       style="opacity:0.998;fill:#59db32;fill-opacity:1;stroke:none;stroke-width:2.07243"
       id="path841"
       cx="256"
       cy="256"
       r="256" />
    <path
       id="path863"
       style="font-style:normal;font-variant:normal;font-weight:normal;font-stretch:normal;font-size:465.638px;line-height:1.25;font-family:'DejaVu Sans Mono';-inkscape-font-specification:'DejaVu Sans Mono, Normal';font-variant-ligatures:normal;font-variant-caps:normal;font-variant-numeric:normal;font-variant-east-asian:normal;fill:url(#linearGradient2415);fill-opacity:1;stroke:none;stroke-width:12.6483px;stroke-opacity:1"
       d="M 229.94141 46.664062 C 185.17841 46.753862 148.9385 83.066578 148.9375 127.83008 L 148.9375 127.83203 C 148.9385 149.35803 157.49089 170.00361 172.71289 185.22461 C 172.93444 185.44615 173.16093 185.66215 173.38477 185.88086 C 173.60349 186.10468 173.81946 186.3312 174.04102 186.55273 L 174.04297 186.55469 C 174.25765 186.76935 174.47654 186.97745 174.69336 187.18945 C 174.9189 187.42042 175.14059 187.65428 175.36914 187.88281 L 175.37109 187.88281 C 175.59265 188.10435 175.81913 188.32036 176.04297 188.53906 C 176.26169 188.76288 176.47767 188.9894 176.69922 189.21094 L 176.69922 189.21289 C 176.92775 189.44143 177.16161 189.66315 177.39258 189.88867 C 177.6046 190.10548 177.81266 190.3244 178.02734 190.53906 L 178.02734 190.54102 C 178.26226 190.77591 178.50276 191.00462 178.74023 191.23633 C 178.94625 191.44686 179.1489 191.66063 179.35742 191.86914 C 179.65293 192.16463 179.95434 192.45369 180.25391 192.74414 C 180.40054 192.89306 180.53765 193.04937 180.68555 193.19727 L 180.68555 193.19922 C 180.97604 193.4897 181.27199 193.77299 181.56641 194.05859 C 181.71816 194.2128 181.86057 194.37423 182.01367 194.52734 L 182.01562 194.52734 C 182.31154 194.82326 182.61213 195.11148 182.91211 195.40234 C 183.05873 195.55126 183.19586 195.70757 183.34375 195.85547 C 183.55227 196.06399 183.76602 196.26664 183.97656 196.47266 C 184.20829 196.71013 184.43696 196.95063 184.67188 197.18555 L 184.67383 197.18555 C 184.89568 197.40739 185.12156 197.6228 185.3457 197.8418 C 185.56442 198.06562 185.7804 198.29213 186.00195 198.51367 C 186.2235 198.73521 186.44999 198.95122 186.67383 199.16992 C 186.89255 199.39374 187.10853 199.62026 187.33008 199.8418 L 187.33008 199.84375 C 187.55178 200.06544 187.77797 200.28115 188.00195 200.5 C 188.22082 200.72397 188.4365 200.95019 188.6582 201.17188 L 188.66016 201.17188 C 188.88171 201.39341 189.1082 201.60942 189.33203 201.82812 C 189.55075 202.05195 189.76673 202.27846 189.98828 202.5 L 189.98828 202.50195 C 190.21682 202.73049 190.45067 202.95221 190.68164 203.17773 C 190.89366 203.39454 191.10173 203.61346 191.31641 203.82812 L 191.31641 203.83008 C 191.55132 204.06497 191.79182 204.29368 192.0293 204.52539 C 192.23531 204.73592 192.43796 204.9497 192.64648 205.1582 C 192.94774 205.45944 193.25313 205.75479 193.55859 206.05078 C 193.69977 206.19407 193.83227 206.34399 193.97461 206.48633 L 193.97461 206.48828 C 194.26511 206.77876 194.56105 207.06205 194.85547 207.34766 C 195.00722 207.50187 195.14963 207.66329 195.30273 207.81641 L 195.30469 207.81641 C 195.6006 208.11232 195.90119 208.40054 196.20117 208.69141 C 196.3478 208.84032 196.48493 208.99664 196.63281 209.14453 C 196.92116 209.43288 197.21561 209.7145 197.50781 209.99805 C 197.66176 210.15453 197.80559 210.31926 197.96094 210.47461 L 197.96289 210.47461 C 198.17757 210.68927 198.39646 210.89737 198.61328 211.10938 C 198.83882 211.34034 199.06051 211.5742 199.28906 211.80273 L 199.29102 211.80273 C 199.51257 212.02427 199.73906 212.24028 199.96289 212.45898 C 200.18161 212.68281 200.39759 212.90932 200.61914 213.13086 L 200.61914 213.13281 C 200.84084 213.3545 201.06703 213.57021 201.29102 213.78906 C 201.50988 214.01304 201.72556 214.23925 201.94727 214.46094 L 201.94922 214.46094 C 202.17077 214.68247 202.39726 214.89848 202.62109 215.11719 C 202.83981 215.34101 203.05579 215.56753 203.27734 215.78906 C 203.49888 216.0106 203.7254 216.22661 203.94922 216.44531 C 204.16823 216.66944 204.38361 216.89535 204.60547 217.11719 L 204.60547 217.11914 C 204.84038 217.35404 205.08088 217.58274 205.31836 217.81445 C 205.52437 218.02498 205.72703 218.23876 205.93555 218.44727 C 206.16377 218.67548 206.39631 218.89784 206.62695 219.12305 C 206.83961 219.34052 207.04834 219.56007 207.26367 219.77539 L 207.26367 219.77734 C 207.56428 220.07793 207.87098 220.37065 208.17578 220.66602 C 208.31788 220.81025 208.45047 220.96219 208.59375 221.10547 C 208.88967 221.40139 209.19025 221.68961 209.49023 221.98047 C 209.63686 222.12938 209.77399 222.2857 209.92188 222.43359 C 210.21022 222.72194 210.50467 223.00356 210.79688 223.28711 C 210.95083 223.44359 211.09466 223.60832 211.25 223.76367 L 211.25195 223.76367 C 211.46663 223.97834 211.68552 224.18643 211.90234 224.39844 C 212.12788 224.62942 212.34957 224.86325 212.57812 225.0918 L 212.58008 225.0918 C 212.80163 225.31333 213.02812 225.52934 213.25195 225.74805 C 213.47067 225.97187 213.68665 226.19838 213.9082 226.41992 L 213.9082 226.42188 C 214.13675 226.65041 214.37058 226.87213 214.60156 227.09766 C 214.81358 227.31447 215.02165 227.53338 215.23633 227.74805 L 215.23828 227.75 C 215.45983 227.97154 215.68632 228.18754 215.91016 228.40625 C 216.12888 228.63007 216.34485 228.85659 216.56641 229.07812 C 216.78794 229.29966 217.01446 229.51567 217.23828 229.73438 C 217.4573 229.95851 217.67268 230.18441 217.89453 230.40625 L 217.89453 230.4082 C 218.12308 230.63674 218.35691 230.85846 218.58789 231.08398 C 218.80026 231.30116 219.00957 231.52131 219.22461 231.73633 C 219.45283 231.96454 219.68537 232.1869 219.91602 232.41211 C 220.12867 232.62958 220.3374 232.84914 220.55273 233.06445 L 220.55273 233.06641 C 220.85334 233.36699 221.16004 233.65971 221.46484 233.95508 C 221.60694 234.09931 221.73954 234.25125 221.88281 234.39453 C 222.17873 234.69045 222.47931 234.97867 222.7793 235.26953 C 222.92592 235.41845 223.06305 235.57476 223.21094 235.72266 C 223.49928 236.011 223.79373 236.29263 224.08594 236.57617 C 224.23989 236.73265 224.38372 236.89738 224.53906 237.05273 C 224.62449 237.13815 224.71306 237.21969 224.79883 237.30469 L 136.32617 427.33008 L 137.93164 428.07031 L 137.65625 428.66016 L 139.25781 429.40039 C 139.25635 429.40354 138.98438 429.98828 138.98438 429.98828 L 140.58984 430.72852 C 140.58837 430.73169 140.31445 431.31836 140.31445 431.31836 L 141.91602 432.05859 C 141.91455 432.06174 141.64258 432.64648 141.64258 432.64648 L 143.24414 433.38672 C 143.24267 433.38987 142.9707 433.97461 142.9707 433.97461 L 144.57617 434.71484 C 144.57469 434.71802 144.30078 435.30469 144.30078 435.30469 L 145.90234 436.04492 C 145.90088 436.04807 145.62891 436.63281 145.62891 436.63281 L 147.23242 437.37305 C 147.23094 437.37622 146.95703 437.96289 146.95703 437.96289 C 146.95725 437.96298 148.42877 438.64232 148.56055 438.70312 C 148.55908 438.70628 148.28711 439.29102 148.28711 439.29102 C 148.28732 439.2911 149.75714 439.97056 149.88867 440.03125 C 149.88721 440.0344 149.61523 440.61914 149.61523 440.61914 C 149.61545 440.61923 151.08866 441.29845 151.2207 441.35938 C 151.21922 441.36255 150.94531 441.94922 150.94531 441.94922 C 150.94557 441.9493 152.41531 442.62876 152.54688 442.68945 C 152.54541 442.6926 152.27344 443.27734 152.27344 443.27734 C 152.2737 443.27747 153.74683 443.95661 153.87891 444.01758 C 153.87743 444.02075 153.60352 444.60742 153.60352 444.60742 C 153.60377 444.60755 155.07351 445.28693 155.20508 445.34766 C 155.20361 445.35081 154.93164 445.93555 154.93164 445.93555 C 154.93194 445.93568 156.4033 446.61494 156.53516 446.67578 C 156.53369 446.67893 156.26172 447.26367 156.26172 447.26367 C 156.26202 447.26384 157.73337 447.94302 157.86523 448.00391 C 157.86376 448.00708 157.58984 448.59375 157.58984 448.59375 C 157.59023 448.59392 159.05973 449.27322 159.19141 449.33398 C 159.18994 449.33713 158.91797 449.92188 158.91797 449.92188 C 158.91835 449.92205 160.38955 450.60123 160.52148 450.66211 C 160.52001 450.66528 160.24609 451.25195 160.24609 451.25195 C 160.24648 451.25212 161.71769 451.93131 161.84961 451.99219 C 161.84814 451.99534 161.57617 452.58008 161.57617 452.58008 C 161.5766 452.58025 163.04603 453.25955 163.17773 453.32031 C 163.17627 453.32346 162.9043 453.9082 162.9043 453.9082 C 162.90473 453.90842 164.37755 454.5874 164.50977 454.64844 C 164.50829 454.65161 164.23438 455.23828 164.23438 455.23828 C 164.23485 455.2385 165.70419 455.91772 165.83594 455.97852 C 165.83447 455.98167 165.5625 456.56641 165.5625 456.56641 C 165.56297 456.56662 167.03571 457.24561 167.16797 457.30664 C 167.16649 457.30982 166.89258 457.89648 166.89258 457.89648 C 166.89305 457.8967 168.36239 458.57592 168.49414 458.63672 C 168.49267 458.63987 168.2207 459.22461 168.2207 459.22461 C 168.22122 459.22482 169.69218 459.90393 169.82422 459.96484 C 169.82275 459.96799 169.55078 460.55273 169.55078 460.55273 C 169.5513 460.55299 171.02225 461.23201 171.1543 461.29297 C 171.15282 461.29614 170.87891 461.88281 170.87891 461.88281 C 170.87951 461.88307 172.34862 462.56221 172.48047 462.62305 C 172.479 462.6262 172.20703 463.21094 172.20703 463.21094 C 172.20763 463.21124 173.67674 463.8903 173.80859 463.95117 C 173.80713 463.95432 173.53516 464.53906 173.53516 464.53906 C 173.53576 464.53936 175.00827 465.21819 175.14062 465.2793 C 175.13915 465.28247 174.86523 465.86914 174.86523 465.86914 C 174.86588 465.86944 176.33491 466.5485 176.4668 466.60938 C 176.46533 466.61253 176.19336 467.19727 176.19336 467.19727 C 176.194 467.19757 177.66643 467.87639 177.79883 467.9375 C 177.79735 467.94068 177.52344 468.52734 177.52344 468.52734 C 177.52408 468.52764 178.99311 469.20671 179.125 469.26758 C 179.12353 469.27073 178.85156 469.85547 178.85156 469.85547 C 178.85225 469.85577 180.32459 470.5346 180.45703 470.5957 C 180.45555 470.59888 180.18164 471.18555 180.18164 471.18555 C 180.18233 471.18585 181.65127 471.86491 181.7832 471.92578 C 181.78174 471.92893 181.50977 472.51367 181.50977 472.51367 C 181.51049 472.51397 182.98107 473.19292 183.11328 473.25391 C 183.11181 473.25706 182.83984 473.8418 182.83984 473.8418 L 182.83984 473.84375 C 182.84057 473.84409 184.30943 474.52307 184.44141 474.58398 C 184.43994 474.58713 184.16797 475.17188 184.16797 475.17188 C 184.1687 475.17226 185.63757 475.85117 185.76953 475.91211 C 185.76806 475.91526 185.49609 476.5 185.49609 476.5 C 185.49691 476.50039 186.96562 477.17929 187.09766 477.24023 C 187.09619 477.24338 186.82422 477.82812 186.82422 477.82812 C 186.82503 477.82851 188.29715 478.50719 188.42969 478.56836 C 188.42821 478.57153 188.1543 479.1582 188.1543 479.1582 C 188.15515 479.15859 189.62379 479.83749 189.75586 479.89844 C 189.75439 479.90159 189.48242 480.48633 189.48242 480.48633 C 189.48328 480.48671 190.95531 481.16538 191.08789 481.22656 C 191.08641 481.22974 190.8125 481.81641 190.8125 481.81641 C 190.81336 481.81679 192.282 482.4957 192.41406 482.55664 C 192.4126 482.55979 192.14062 483.14453 192.14062 483.14453 C 192.14153 483.14492 193.61348 483.82358 193.74609 483.88477 C 193.74462 483.88794 193.4707 484.47461 193.4707 484.47461 C 193.4716 484.47504 194.94015 485.15386 195.07227 485.21484 C 195.0708 485.21799 194.79883 485.80273 194.79883 485.80273 C 194.79977 485.80316 196.27164 486.48175 196.4043 486.54297 C 196.40282 486.54614 196.12891 487.13281 196.12891 487.13281 C 196.12985 487.13324 197.59832 487.81206 197.73047 487.87305 C 197.729 487.8762 197.45703 488.46094 197.45703 488.46094 C 197.45797 488.46141 198.92646 489.14016 199.05859 489.20117 C 199.05713 489.20432 198.78516 489.78906 198.78516 489.78906 C 198.78618 489.78953 200.25451 490.46828 200.38672 490.5293 C 200.38525 490.53245 200.11328 491.11719 200.11328 491.11719 C 200.11431 491.11766 201.58604 491.79618 201.71875 491.85742 C 201.71727 491.8606 201.44336 492.44727 201.44336 492.44727 C 201.44439 492.44774 202.91271 493.12649 203.04492 493.1875 C 203.04346 493.19065 202.77148 493.77539 202.77148 493.77539 C 202.77256 493.77586 204.24419 494.45437 204.37695 494.51562 C 204.37547 494.5188 204.10156 495.10547 204.10156 495.10547 C 204.10263 495.10598 205.57088 495.78465 205.70312 495.8457 C 205.70166 495.84885 205.42969 496.43359 205.42969 496.43359 L 207.03516 497.17383 C 207.03368 497.177 206.75977 497.76367 206.75977 497.76367 L 208.36133 498.50391 C 208.35986 498.50706 208.08789 499.0918 208.08789 499.0918 L 209.69336 499.83203 C 209.69188 499.83521 209.41797 500.42188 209.41797 500.42188 C 209.41912 500.42239 210.88732 501.09916 211.01953 501.16016 C 211.01806 501.16331 210.74609 501.74805 210.74609 501.74805 C 210.74725 501.7486 212.21704 502.42708 212.34961 502.48828 C 212.34813 502.49146 212.07422 503.07812 212.07422 503.07812 C 212.07542 503.07868 213.54343 503.75727 213.67578 503.81836 C 213.67431 503.82151 213.40234 504.40625 213.40234 504.40625 C 213.40359 504.40681 214.87492 505.08517 215.00781 505.14648 C 215.00633 505.14966 214.73242 505.73633 214.73242 505.73633 C 214.73366 505.73693 216.2016 506.41544 216.33398 506.47656 C 216.33252 506.47971 216.06055 507.06445 216.06055 507.06445 C 216.06183 507.06505 217.53308 507.74333 217.66602 507.80469 C 217.66454 507.80786 217.39062 508.39453 217.39062 508.39453 C 217.39191 508.39513 218.85977 509.07364 218.99219 509.13477 C 218.99072 509.13792 218.71875 509.72266 218.71875 509.72266 C 218.72008 509.72326 220.19124 510.40153 220.32422 510.46289 C 220.32274 510.46607 220.04883 511.05273 220.04883 511.05273 C 220.05016 511.05333 221.51792 511.73184 221.65039 511.79297 C 221.64892 511.79612 221.37695 512.38086 221.37695 512.38086 C 221.37828 512.38146 222.84775 513.05986 222.98047 513.12109 C 222.97899 513.12427 222.70508 513.71094 222.70508 513.71094 C 222.70645 513.71154 224.17584 514.38993 224.30859 514.45117 C 224.30714 514.4543 224.03516 515.03711 224.03516 515.03711 L 224.03516 515.03906 C 224.03653 515.03966 225.50423 515.71818 225.63672 515.7793 C 225.63525 515.78245 225.36328 516.36719 225.36328 516.36719 C 225.36465 516.36787 226.83235 517.04623 226.96484 517.10742 C 226.96338 517.11057 226.69141 517.69531 226.69141 517.69531 L 226.69336 517.69531 C 226.69477 517.696 228.16409 518.37423 228.29688 518.43555 C 228.2954 518.43872 228.02148 519.02539 228.02148 519.02539 C 228.02294 519.02608 229.49048 519.70443 229.62305 519.76562 C 229.62158 519.76877 229.34961 520.35352 229.34961 520.35352 C 229.35111 520.3542 230.82197 521.03232 230.95508 521.09375 C 230.9536 521.09692 230.67969 521.68359 230.67969 521.68359 C 230.68119 521.68428 232.14864 522.36263 232.28125 522.42383 C 232.27978 522.42698 232.00781 523.01172 232.00781 523.01172 C 232.00931 523.01241 233.48016 523.69052 233.61328 523.75195 C 233.6118 523.75513 233.33789 524.3418 233.33789 524.3418 C 233.33943 524.34248 234.80681 525.02083 234.93945 525.08203 C 234.93799 525.08518 234.66602 525.66992 234.66602 525.66992 C 234.66756 525.67065 236.13494 526.34893 236.26758 526.41016 C 236.26611 526.41331 235.99414 526.99805 235.99414 526.99805 C 235.99573 526.99878 237.46642 527.67682 237.59961 527.73828 C 237.59813 527.74146 237.32422 528.32812 237.32422 528.32812 C 237.3258 528.32885 238.79311 529.00713 238.92578 529.06836 C 238.92432 529.07151 238.65234 529.65625 238.65234 529.65625 C 238.65393 529.65702 240.12123 530.33522 240.25391 530.39648 C 240.25244 530.39963 239.98047 530.98438 239.98047 530.98438 L 239.98242 530.98438 C 239.98405 530.98515 241.45297 531.66323 241.58594 531.72461 C 241.58446 531.72778 241.31055 532.31445 241.31055 532.31445 L 242.91211 533.05469 C 242.91064 533.05784 242.63867 533.64258 242.63867 533.64258 C 242.64039 533.64335 244.11085 534.32131 244.24414 534.38281 C 244.24266 534.38599 243.96875 534.97266 243.96875 534.97266 C 243.97046 534.97343 245.43752 535.65162 245.57031 535.71289 C 245.56885 535.71604 245.29688 536.30078 245.29688 536.30078 C 245.29859 536.3016 246.76905 536.97948 246.90234 537.04102 C 246.90087 537.04419 246.62695 537.63086 246.62695 537.63086 C 246.62871 537.63167 248.09569 538.30979 248.22852 538.37109 C 248.22705 538.37424 247.95508 538.95898 247.95508 538.95898 C 247.95683 538.9598 249.42383 539.63792 249.55664 539.69922 C 249.55517 539.70237 249.2832 540.28711 249.2832 540.28711 C 249.28496 540.28792 250.75534 540.96581 250.88867 541.02734 C 250.88719 541.03052 250.61328 541.61719 250.61328 541.61719 C 250.61508 541.618 252.08199 542.29613 252.21484 542.35742 C 252.21338 542.36057 251.94141 542.94531 251.94141 542.94531 C 251.94321 542.94613 253.41012 543.62425 253.54297 543.68555 C 253.5415 543.6887 253.26953 544.27344 253.26953 544.27344 L 253.27148 544.27344 C 253.27333 544.27429 254.74185 544.95222 254.875 545.01367 C 254.87352 545.01685 254.59961 545.60352 254.59961 545.60352 C 254.60145 545.60437 256.06829 546.28241 256.20117 546.34375 C 256.19971 546.3469 255.92773 546.93164 255.92773 546.93164 C 255.92962 546.93254 257.39976 547.61026 257.5332 547.67188 C 257.53173 547.67505 257.25781 548.26172 257.25781 548.26172 C 257.25974 548.26262 258.72641 548.94058 258.85938 549.00195 C 258.85791 549.0051 258.58594 549.58984 258.58594 549.58984 C 258.58787 549.59074 260.05624 550.26859 260.18945 550.33008 C 260.18798 550.33325 259.91406 550.91992 259.91406 550.91992 C 259.91603 550.92082 261.38433 551.59866 261.51758 551.66016 C 261.51611 551.66331 261.24414 552.24805 261.24414 552.24805 C 261.24611 552.24895 262.71271 552.92691 262.8457 552.98828 C 262.84424 552.99143 262.57227 553.57617 262.57227 553.57617 C 262.57424 553.57707 264.04422 554.2548 264.17773 554.31641 C 264.17626 554.31958 263.90234 554.90625 263.90234 554.90625 C 263.90436 554.90715 265.37088 555.58512 265.50391 555.64648 C 265.50244 555.64963 265.23047 556.23438 265.23047 556.23438 C 265.23248 556.23528 266.7007 556.91312 266.83398 556.97461 C 266.83252 556.97776 266.56055 557.5625 266.56055 557.5625 C 266.5626 557.56349 268.03074 558.24117 268.16406 558.30273 C 268.16258 558.30591 267.88867 558.89258 267.88867 558.89258 C 267.89073 558.89356 269.35717 559.57137 269.49023 559.63281 C 269.48877 559.63596 269.2168 560.2207 269.2168 560.2207 C 269.2189 560.22169 270.68864 560.89925 270.82227 560.96094 C 270.82079 560.96411 270.54688 561.55078 270.54688 561.55078 C 270.54902 561.55177 272.0153 562.22957 272.14844 562.29102 C 272.14697 562.29416 271.875 562.87891 271.875 562.87891 C 271.87714 562.87989 273.34343 563.5577 273.47656 563.61914 C 273.4751 563.62229 273.20312 564.20703 273.20312 564.20703 C 273.20527 564.20802 274.67494 564.88559 274.80859 564.94727 C 274.80712 564.95044 274.5332 565.53711 274.5332 565.53711 C 274.53539 565.53809 276.00159 566.2159 276.13477 566.27734 C 276.1333 566.28049 275.86133 566.86523 275.86133 566.86523 C 275.86352 566.86622 277.33311 567.54379 277.4668 567.60547 C 277.46532 567.60864 277.19141 568.19531 277.19141 568.19531 C 277.19363 568.19634 278.65976 568.87407 278.79297 568.93555 C 278.7915 568.9387 278.51953 569.52344 278.51953 569.52344 C 278.52176 569.52447 279.98958 570.20208 280.12305 570.26367 C 280.12158 570.26682 279.84961 570.85156 279.84961 570.85156 L 279.84961 570.85352 C 279.85184 570.85454 281.31796 571.53227 281.45117 571.59375 C 281.44971 571.5969 281.17773 572.18164 281.17773 572.18164 C 281.18 572.18271 282.64605 572.86036 282.7793 572.92188 C 282.77783 572.92502 282.50586 573.50977 282.50586 573.50977 L 282.50781 573.50977 C 282.51008 573.51084 283.97781 574.18836 284.11133 574.25 C 284.10985 574.25317 283.83594 574.83984 283.83594 574.83984 C 283.83829 574.84091 285.30418 575.51856 285.4375 575.58008 C 285.43603 575.58323 285.16406 576.16797 285.16406 576.16797 C 285.16642 576.16904 286.63231 576.84669 286.76562 576.9082 C 286.76416 576.91135 286.49219 577.49609 286.49219 577.49609 C 286.49455 577.49717 287.96383 578.17458 288.09766 578.23633 C 288.09618 578.2395 287.82227 578.82617 287.82227 578.82617 C 287.82466 578.82729 289.29048 579.50486 289.42383 579.56641 C 289.42236 579.56955 289.15039 580.1543 289.15039 580.1543 C 289.15279 580.15541 290.62199 580.83274 290.75586 580.89453 C 290.75438 580.8977 290.48047 581.48438 290.48047 581.48438 C 290.48291 581.48549 291.94864 582.16306 292.08203 582.22461 C 292.08057 582.22776 291.80859 582.8125 291.80859 582.8125 C 291.81104 582.81361 293.27846 583.49107 293.41211 583.55273 C 293.41064 583.55588 293.13867 584.14062 293.13867 584.14062 L 293.13867 584.14258 C 293.14111 584.14369 294.60683 584.82126 294.74023 584.88281 C 294.73877 584.88596 294.4668 585.4707 294.4668 585.4707 C 294.46928 585.47186 295.93494 586.14935 296.06836 586.21094 C 296.06689 586.21409 295.79492 586.79883 295.79492 586.79883 L 295.79688 586.79883 C 295.79936 586.79998 297.26512 587.47557 297.39844 587.53711 C 297.39695 587.5403 297.12305 588.12891 297.12305 588.12891 C 297.12558 588.13006 298.59285 588.80744 298.72656 588.86914 C 298.7251 588.87229 298.45312 589.45703 298.45312 589.45703 C 298.45569 589.45823 299.92119 590.13564 300.05469 590.19727 C 300.05322 590.20041 299.78125 590.78516 299.78125 590.78516 C 299.78382 590.78636 301.25271 591.46353 301.38672 591.52539 C 301.38524 591.52856 301.11133 592.11523 301.11133 592.11523 C 301.11394 592.11643 302.57936 592.79385 302.71289 592.85547 C 302.71142 592.85862 302.43945 593.44336 302.43945 593.44336 C 302.44207 593.44456 303.91087 594.12173 304.04492 594.18359 C 304.04344 594.18677 303.76953 594.77344 303.76953 594.77344 C 303.77214 594.77464 305.23756 595.45205 305.37109 595.51367 C 305.36963 595.51682 305.09766 596.10156 305.09766 596.10156 C 305.10032 596.10276 306.56904 596.77994 306.70312 596.8418 C 306.70165 596.84497 306.42773 597.43164 306.42773 597.43164 C 306.43039 597.43284 307.89572 598.11025 308.0293 598.17188 C 308.02783 598.17502 307.75586 598.75977 307.75586 598.75977 C 307.75856 598.76105 309.22382 599.43831 309.35742 599.5 C 309.35596 599.50315 309.08398 600.08789 309.08398 600.08789 L 309.08594 600.08789 C 309.08863 600.08918 310.55401 600.76453 310.6875 600.82617 C 310.68601 600.82936 310.41211 601.41797 310.41211 601.41797 L 310.41406 601.41797 C 310.41676 601.41925 311.88202 602.09651 312.01562 602.1582 C 312.01416 602.16135 311.74219 602.74609 311.74219 602.74609 C 311.74497 602.74738 313.21007 603.42464 313.34375 603.48633 C 313.34228 603.48948 313.07031 604.07422 313.07031 604.07422 L 314.67578 604.81445 C 314.6743 604.81763 314.40039 605.4043 314.40039 605.4043 C 314.40322 605.40558 315.86825 606.08284 316.00195 606.14453 C 316.00049 606.14768 315.72852 606.73242 315.72852 606.73242 C 315.73135 606.73371 317.19976 607.41072 317.33398 607.47266 C 317.33251 607.47583 317.05859 608.0625 317.05859 608.0625 C 317.06142 608.06378 318.52644 608.74104 318.66016 608.80273 C 318.65869 608.80588 318.38672 609.39062 318.38672 609.39062 C 318.38959 609.39196 319.85792 610.06889 319.99219 610.13086 C 319.99071 610.13403 319.7168 610.7207 319.7168 610.7207 C 319.71967 610.72203 321.1846 611.3992 321.31836 611.46094 C 321.31689 611.46409 321.04492 612.04883 321.04492 612.04883 C 321.04779 612.05016 322.51274 612.72734 322.64648 612.78906 C 322.64502 612.79221 322.37305 613.37695 322.37305 613.37695 C 322.37596 613.37832 323.84083 614.05542 323.97461 614.11719 C 323.97314 614.12034 323.70117 614.70508 323.70117 614.70508 L 323.70312 614.70508 C 323.70604 614.70645 325.17261 615.38343 325.30664 615.44531 C 325.30516 615.44849 325.03125 616.03516 325.03125 616.03516 C 325.03425 616.03653 326.49896 616.71363 326.63281 616.77539 C 326.63135 616.77854 326.35938 617.36328 326.35938 617.36328 C 326.36238 617.36465 327.83049 618.04152 327.96484 618.10352 C 327.96337 618.10669 327.68945 618.69336 327.68945 618.69336 C 327.69245 618.69473 329.15717 619.37183 329.29102 619.43359 C 329.28955 619.43674 329.01758 620.02148 329.01758 620.02148 C 329.02063 620.0229 330.48864 620.69968 330.62305 620.76172 C 330.62157 620.76489 330.34766 621.35156 330.34766 621.35156 C 330.3507 621.35298 331.81532 622.02999 331.94922 622.0918 C 331.94775 622.09494 331.67578 622.67969 331.67578 622.67969 C 331.67887 622.6811 333.14681 623.35788 333.28125 623.41992 C 333.27977 623.42309 333.00586 624.00977 333.00586 624.00977 C 333.00894 624.01118 334.47348 624.6882 334.60742 624.75 C 334.60596 624.75315 334.33398 625.33789 334.33398 625.33789 C 334.33707 625.3393 335.80162 626.01633 335.93555 626.07812 C 335.93408 626.08127 335.66211 626.66602 335.66211 626.66602 C 335.66524 626.66747 337.12971 627.34441 337.26367 627.40625 C 337.26221 627.4094 336.99023 627.99414 336.99023 627.99414 L 336.99219 627.99414 C 336.99532 627.9956 338.46149 628.67242 338.5957 628.73438 C 338.59423 628.73755 338.32031 629.32422 338.32031 629.32422 C 338.32348 629.32568 339.78788 630.00262 339.92188 630.06445 C 339.92041 630.0676 339.64844 630.65234 339.64844 630.65234 C 339.65166 630.65385 341.11936 631.33047 341.25391 631.39258 C 341.25243 631.39575 340.97852 631.98242 340.97852 631.98242 C 340.98173 631.98392 342.44605 632.66078 342.58008 632.72266 C 342.57861 632.7258 342.30664 633.31055 342.30664 633.31055 C 342.3099 633.31205 343.77752 633.98867 343.91211 634.05078 C 343.91063 634.05395 343.63672 634.64062 343.63672 634.64062 C 343.63997 634.64212 345.10421 635.31898 345.23828 635.38086 C 345.23682 635.38401 344.96484 635.96875 344.96484 635.96875 C 344.96811 635.97025 346.43573 636.64688 346.57031 636.70898 C 346.56884 636.71216 346.29492 637.29883 346.29492 637.29883 C 346.29822 637.30033 347.76237 637.97719 347.89648 638.03906 C 347.89502 638.04221 347.62305 638.62695 347.62305 638.62695 C 347.62634 638.62845 349.09051 639.30532 349.22461 639.36719 C 349.22314 639.37033 348.95117 639.95508 348.95117 639.95508 C 348.95451 639.95658 350.4186 640.63344 350.55273 640.69531 C 350.55127 640.69846 350.2793 641.2832 350.2793 641.2832 L 350.28125 641.2832 C 350.28459 641.28479 351.75037 641.96138 351.88477 642.02344 C 351.88329 642.02661 351.60938 642.61328 351.60938 642.61328 C 351.61272 642.61487 353.0768 643.29157 353.21094 643.35352 C 353.20947 643.35666 352.9375 643.94141 352.9375 643.94141 C 352.94093 643.94299 354.40825 644.61946 354.54297 644.68164 C 354.54149 644.68481 354.26758 645.27148 354.26758 645.27148 C 354.271 645.27307 355.73493 645.94978 355.86914 646.01172 C 355.86768 646.01487 355.5957 646.59961 355.5957 646.59961 C 355.59918 646.6012 357.06641 647.27766 357.20117 647.33984 C 357.19969 647.34302 356.92578 647.92969 356.92578 647.92969 C 356.92925 647.93127 358.39309 648.60797 358.52734 648.66992 C 358.52588 648.67307 358.25391 649.25781 358.25391 649.25781 C 358.25738 649.2594 359.72292 649.93599 359.85742 649.99805 C 359.85594 650.00122 359.58203 650.58789 359.58203 650.58789 C 359.58555 650.58948 361.051 651.26606 361.18555 651.32812 C 361.18408 651.33127 360.91211 651.91602 360.91211 651.91602 C 360.91562 651.91764 362.37939 652.59427 362.51367 652.65625 C 362.51221 652.6594 362.24023 653.24414 362.24023 653.24414 C 362.24379 653.24577 363.70748 653.9224 363.8418 653.98438 C 363.84033 653.98752 363.56836 654.57227 363.56836 654.57227 L 363.57031 654.57227 C 363.57387 654.57394 365.03926 655.25037 365.17383 655.3125 C 365.17235 655.31567 364.89844 655.90234 364.89844 655.90234 C 364.90199 655.90401 366.36568 656.58056 366.5 656.64258 C 366.49853 656.64573 366.22656 657.23047 366.22656 657.23047 L 366.22852 657.23047 C 366.23212 657.23214 367.69742 657.90857 367.83203 657.9707 C 367.83055 657.97388 367.55664 658.56055 367.55664 658.56055 C 367.56028 658.56222 369.02381 659.23877 369.1582 659.30078 C 369.15674 659.30393 368.88477 659.88867 368.88477 659.88867 C 368.88841 659.89035 370.35533 660.56665 370.49023 660.62891 C 370.48876 660.63208 370.21484 661.21875 370.21484 661.21875 C 370.21853 661.22042 371.68197 661.89696 371.81641 661.95898 C 371.81494 661.96213 371.54297 662.54688 371.54297 662.54688 C 371.54666 662.54859 373.0118 663.22494 373.14648 663.28711 C 373.14501 663.29028 372.87109 663.87695 372.87109 663.87695 C 372.87482 663.87867 374.33989 664.55502 374.47461 664.61719 C 374.47314 664.62033 374.20117 665.20508 374.20117 665.20508 C 374.2049 665.20679 375.66828 665.88327 375.80273 665.94531 C 375.80127 665.94846 375.5293 666.5332 375.5293 666.5332 C 375.53303 666.53492 376.99809 667.21127 377.13281 667.27344 C 377.13135 667.27658 376.85938 667.86133 376.85938 667.86133 L 376.85938 667.86328 C 376.86314 667.86499 378.32644 668.54147 378.46094 668.60352 C 378.45947 668.60666 378.1875 669.19141 378.1875 669.19141 C 378.19127 669.19316 379.65457 669.86955 379.78906 669.93164 C 379.7876 669.93479 379.51562 670.51953 379.51562 670.51953 L 379.51758 670.51953 C 379.52139 670.52129 380.9863 671.19756 381.12109 671.25977 C 381.11962 671.26294 380.8457 671.84961 380.8457 671.84961 C 380.84952 671.85141 382.31274 672.52772 382.44727 672.58984 C 382.4458 672.59299 382.17383 673.17773 382.17383 673.17773 C 382.17769 673.17954 383.64421 673.85561 383.7793 673.91797 C 383.77782 673.92114 383.50391 674.50781 383.50391 674.50781 C 383.5078 674.50961 384.97086 675.18592 385.10547 675.24805 C 385.104 675.25119 384.83203 675.83594 384.83203 675.83594 C 384.83593 675.83774 386.29899 676.51405 386.43359 676.57617 C 386.43213 676.57932 386.16016 677.16406 386.16016 677.16406 C 386.1641 677.16587 387.63047 677.84194 387.76562 677.9043 C 387.76415 677.90747 387.49023 678.49414 387.49023 678.49414 C 387.49417 678.49594 388.95716 679.17226 389.0918 679.23438 C 389.09033 679.23752 388.81836 679.82227 388.81836 679.82227 C 388.8223 679.82407 390.28698 680.50026 390.42188 680.5625 C 390.42041 680.56565 390.14844 681.15039 390.14844 681.15039 L 390.14844 681.15234 C 390.15242 681.15414 391.61532 681.83046 391.75 681.89258 C 391.74853 681.89572 391.47656 682.48047 391.47656 682.48047 C 391.48055 682.48235 392.94345 683.15851 393.07812 683.2207 C 393.07666 683.22385 392.80469 683.80859 392.80469 683.80859 L 392.80664 683.80859 C 392.81063 683.81048 394.27521 684.48651 394.41016 684.54883 C 394.40868 684.552 394.13477 685.13867 394.13477 685.13867 C 394.13879 685.14056 395.60162 685.81671 395.73633 685.87891 C 395.73486 685.88205 395.46289 686.4668 395.46289 686.4668 C 395.46697 686.46869 396.93309 687.1446 397.06836 687.20703 C 397.06688 687.2102 396.79297 687.79688 396.79297 687.79688 C 396.79708 687.79876 398.25974 688.47491 398.39453 688.53711 C 398.39307 688.54026 398.12109 689.125 398.12109 689.125 C 398.12521 689.12688 399.58788 689.80304 399.72266 689.86523 C 399.72119 689.86838 399.44922 690.45312 399.44922 690.45312 C 399.45334 690.45501 400.91939 691.13093 401.05469 691.19336 C 401.05321 691.19653 400.7793 691.7832 400.7793 691.7832 C 400.78345 691.78509 402.24604 692.46125 402.38086 692.52344 C 402.37939 692.52658 402.10742 693.11133 402.10742 693.11133 C 402.11158 693.11326 403.57586 693.78922 403.71094 693.85156 C 403.70947 693.85471 403.4375 694.43945 403.4375 694.43945 L 403.4375 694.44141 C 403.4417 694.44333 404.90421 695.11941 405.03906 695.18164 C 405.0376 695.18479 404.76562 695.76953 404.76562 695.76953 C 404.76982 695.77146 406.23234 696.44754 406.36719 696.50977 C 406.36572 696.51291 406.09375 697.09766 406.09375 697.09766 L 406.0957 697.09766 C 406.0999 697.09963 407.5641 697.7755 407.69922 697.83789 C 407.69774 697.84106 407.42383 698.42773 407.42383 698.42773 C 407.42807 698.4297 408.8905 699.1057 409.02539 699.16797 C 409.02393 699.17112 408.75195 699.75586 408.75195 699.75586 L 408.75391 699.75586 C 408.75814 699.75783 410.22069 700.43193 410.35547 700.49414 C 410.35398 700.49733 410.08008 701.08594 410.08008 701.08594 C 410.08441 701.08791 411.54837 701.76379 411.68359 701.82617 C 411.68213 701.82932 411.41016 702.41406 411.41016 702.41406 C 411.41448 702.41603 412.87676 703.09203 413.01172 703.1543 C 413.01025 703.15744 412.73828 703.74219 412.73828 703.74219 C 412.74262 703.7442 414.20827 704.41988 414.34375 704.48242 C 414.34227 704.48559 414.06836 705.07227 414.06836 705.07227 C 414.07273 705.07428 415.53492 705.7502 415.66992 705.8125 C 415.66846 705.81565 415.39648 706.40039 415.39648 706.40039 C 415.40086 706.40241 416.86644 707.07809 417.00195 707.14062 C 417.00048 707.1438 416.72656 707.73047 416.72656 707.73047 C 416.73093 707.73248 418.19313 708.4084 418.32812 708.4707 C 418.32666 708.47385 418.05469 709.05859 418.05469 709.05859 C 418.0591 709.06061 419.52122 709.73653 419.65625 709.79883 C 419.65479 709.80197 419.38281 710.38672 419.38281 710.38672 L 419.38477 710.38672 C 419.38918 710.38878 420.85298 711.06449 420.98828 711.12695 C 420.9868 711.13012 420.71289 711.7168 420.71289 711.7168 C 420.71735 711.71885 422.17939 712.3947 422.31445 712.45703 C 422.31299 712.46018 422.04102 713.04492 422.04102 713.04492 L 422.04297 713.04492 C 422.04742 713.04697 423.50788 713.72104 423.64258 713.7832 C 423.64111 713.78637 423.36914 714.37305 423.36914 714.37305 C 423.37365 714.37515 424.839 715.05068 424.97461 715.11328 C 424.97313 715.11645 424.69922 715.70312 424.69922 715.70312 C 424.70376 715.70522 426.16564 716.38099 426.30078 716.44336 C 426.29932 716.44651 426.02734 717.03125 426.02734 717.03125 C 426.03189 717.03335 427.49716 717.70887 427.63281 717.77148 C 427.63134 717.77466 427.35742 718.36133 427.35742 718.36133 C 427.362 718.36343 428.82381 719.03919 428.95898 719.10156 C 428.95752 719.10471 428.68555 719.68945 428.68555 719.68945 C 428.69014 719.69156 430.15532 720.36708 430.29102 720.42969 C 430.28954 720.43286 430.01562 721.01953 430.01562 721.01953 C 430.02021 721.02163 431.48201 721.69739 431.61719 721.75977 C 431.61572 721.76291 431.34375 722.34766 431.34375 722.34766 C 431.34838 722.34975 432.8101 723.02552 432.94531 723.08789 C 432.94385 723.09104 432.67188 723.67578 432.67188 723.67578 L 432.67383 723.67578 C 432.67846 723.67793 434.14186 724.35348 434.27734 724.41602 C 434.27587 724.41919 434.00195 725.00586 434.00195 725.00586 C 434.00662 725.00804 435.46827 725.68365 435.60352 725.74609 C 435.60205 725.74924 435.33008 726.33398 435.33008 726.33398 C 435.33475 726.33617 436.7964 727.01178 436.93164 727.07422 C 436.93018 727.07736 436.6582 727.66211 436.6582 727.66211 L 436.66016 727.66211 C 436.66483 727.6643 438.12817 728.33978 438.26367 728.40234 C 438.2622 728.40552 437.98828 728.99219 437.98828 728.99219 C 437.99304 728.99437 439.45453 729.66998 439.58984 729.73242 C 439.58838 729.73557 439.31641 730.32031 439.31641 730.32031 C 439.32117 730.3225 440.78604 730.99786 440.92188 731.06055 C 440.9204 731.06372 440.64648 731.65039 440.64648 731.65039 C 440.65124 731.65258 442.11273 732.32818 442.24805 732.39062 C 442.24658 732.39377 441.97461 732.97852 441.97461 732.97852 C 441.97942 732.9807 443.4442 733.65607 443.58008 733.71875 C 443.5786 733.72192 443.30469 734.30859 443.30469 734.30859 C 443.30948 734.31078 444.77088 734.98638 444.90625 735.04883 C 444.90479 735.05197 444.63281 735.63672 444.63281 735.63672 C 444.63766 735.63895 446.10068 736.31436 446.23633 736.37695 C 446.23486 736.3801 445.96289 736.96484 445.96289 736.96484 L 445.96289 736.9668 C 445.96773 736.96902 447.42917 737.64265 447.56445 737.70508 C 447.56298 737.70825 447.28906 738.29492 447.28906 738.29492 L 447.29102 738.29492 C 447.29586 738.29719 448.75719 738.97264 448.89258 739.03516 C 448.89111 739.0383 448.61914 739.62305 448.61914 739.62305 C 448.62402 739.62532 450.08528 740.30077 450.2207 740.36328 C 450.21924 740.36643 449.94727 740.95117 449.94727 740.95117 L 449.94922 740.95117 C 449.95411 740.95344 451.41706 741.62877 451.55273 741.69141 C 451.55126 741.69458 451.27734 742.28125 451.27734 742.28125 C 451.28231 742.28352 452.74341 742.95897 452.87891 743.02148 C 452.87744 743.02463 452.60547 743.60938 452.60547 743.60938 C 452.61045 743.61165 454.07492 744.28685 454.21094 744.34961 C 454.20946 744.35278 453.93555 744.93945 453.93555 744.93945 C 453.94052 744.94177 455.40162 745.61714 455.53711 745.67969 C 455.53564 745.68283 455.26367 746.26758 455.26367 746.26758 C 455.26869 746.2699 456.73309 746.94502 456.86914 747.00781 C 456.86766 747.01098 456.59375 747.59766 456.59375 747.59766 C 456.59876 747.59997 458.05977 748.27534 458.19531 748.33789 C 458.19385 748.34104 457.92188 748.92578 457.92188 748.92578 C 457.92689 748.9281 459.3896 749.60335 459.52539 749.66602 C 459.52393 749.66916 459.25195 750.25391 459.25195 750.25391 L 459.25195 750.25586 C 459.257 750.25817 460.71636 750.93176 460.85156 750.99414 C 460.8501 750.99729 460.57812 751.58203 460.57812 751.58203 L 460.58008 751.58203 C 460.58514 751.58439 462.04777 752.25956 462.18359 752.32227 C 462.18212 752.32544 461.9082 752.91211 461.9082 752.91211 C 461.9133 752.91447 463.37416 753.58976 463.50977 753.65234 C 463.5083 753.65549 463.23633 754.24023 463.23633 754.24023 L 463.23828 754.24023 C 463.24338 754.24259 464.70594 754.91776 464.8418 754.98047 C 464.84032 754.98364 464.56641 755.57031 464.56641 755.57031 C 464.5715 755.57271 466.03237 756.24792 466.16797 756.31055 C 466.1665 756.31369 465.89453 756.89844 465.89453 756.89844 C 465.89972 756.90084 467.3638 757.57581 467.5 757.63867 C 467.49852 757.64184 467.22461 758.22852 467.22461 758.22852 C 467.22979 758.23091 468.6905 758.90613 468.82617 758.96875 C 468.82471 758.9719 468.55273 759.55664 468.55273 759.55664 C 468.55797 759.55904 470.02197 760.23401 470.1582 760.29688 C 470.15673 760.30005 469.88281 760.88672 469.88281 760.88672 C 469.88804 760.88912 471.34865 761.56433 471.48438 761.62695 C 471.48291 761.6301 471.21094 762.21484 471.21094 762.21484 C 471.21616 762.21724 472.67679 762.89246 472.8125 762.95508 C 472.81104 762.95822 472.53906 763.54297 472.53906 763.54297 L 472.53906 763.54492 C 472.54434 763.54732 474.00657 764.22241 474.14258 764.28516 C 474.14112 764.28828 473.86914 764.87109 473.86914 764.87109 L 473.86914 764.87305 C 473.87441 764.87545 475.33496 765.55066 475.4707 765.61328 C 475.46924 765.61643 475.19727 766.20117 475.19727 766.20117 C 475.20258 766.20366 476.66305 766.87871 476.79883 766.94141 C 476.79736 766.94455 476.52539 767.5293 476.52539 767.5293 L 476.52734 767.5293 C 476.53266 767.53178 477.99482 768.20672 478.13086 768.26953 C 478.12938 768.2727 477.85547 768.85938 477.85547 768.85938 C 477.86078 768.86186 479.32125 769.53692 479.45703 769.59961 C 479.45557 769.60275 479.18359 770.1875 479.18359 770.1875 C 479.189 770.18999 480.65269 770.8648 480.78906 770.92773 C 480.78759 770.9309 480.51367 771.51758 480.51367 771.51758 C 480.51907 771.52006 481.97937 772.19511 482.11523 772.25781 C 482.11377 772.26096 481.8418 772.8457 481.8418 772.8457 C 481.8472 772.84819 483.31089 773.52301 483.44727 773.58594 C 483.44579 773.58911 483.17188 774.17578 483.17188 774.17578 C 483.17731 774.17827 484.63753 774.85332 484.77344 774.91602 C 484.77197 774.91916 484.5 775.50391 484.5 775.50391 C 484.50544 775.50639 485.96568 776.18145 486.10156 776.24414 C 486.1001 776.24729 485.82812 776.83203 485.82812 776.83203 C 485.83361 776.83456 487.29546 777.50942 487.43164 777.57227 C 487.43018 777.57541 487.1582 778.16016 487.1582 778.16016 L 487.1582 778.16211 C 487.16369 778.16464 488.62384 778.83962 488.75977 778.90234 C 488.7583 778.90549 488.48633 779.49023 488.48633 779.49023 C 488.49181 779.4928 489.95197 780.1677 490.08789 780.23047 C 490.08643 780.23361 489.81445 780.81836 489.81445 780.81836 L 489.81641 780.81836 C 489.82194 780.82093 491.2837 781.49571 491.41992 781.55859 C 491.41845 781.56176 491.14453 782.14844 491.14453 782.14844 C 491.15006 782.15101 492.61014 782.82591 492.74609 782.88867 C 492.74463 782.89182 492.47266 783.47656 492.47266 783.47656 L 492.47461 783.47656 L 494.07812 784.2168 C 494.07665 784.21997 493.80273 784.80664 493.80273 784.80664 C 493.80835 784.80921 495.26826 785.4841 495.4043 785.54688 C 495.40283 785.55002 495.13086 786.13477 495.13086 786.13477 C 495.13648 786.13734 496.59977 786.81199 496.73633 786.875 C 496.73485 786.87817 496.46094 787.46484 496.46094 787.46484 C 496.46659 787.46746 497.92642 788.14227 498.0625 788.20508 C 498.06104 788.20822 497.78906 788.79297 497.78906 788.79297 C 497.79472 788.79558 499.25456 789.47041 499.39062 789.5332 C 499.38916 789.53635 499.11719 790.12109 499.11719 790.12109 C 499.12289 790.12371 500.58434 790.79841 500.7207 790.86133 C 500.71924 790.86447 500.44727 791.44922 500.44727 791.44922 L 500.44727 791.45117 C 500.45296 791.45378 501.91273 792.12861 502.04883 792.19141 C 502.04736 792.19455 501.77539 792.7793 501.77539 792.7793 C 501.78109 792.78191 503.24085 793.45673 503.37695 793.51953 C 503.37549 793.52268 503.10352 794.10742 503.10352 794.10742 L 503.10547 794.10742 C 503.11121 794.11008 504.57259 794.7847 504.70898 794.84766 C 504.70751 794.85083 504.43359 795.4375 504.43359 795.4375 C 504.43933 795.44016 505.89902 796.1149 506.03516 796.17773 C 506.03369 796.18088 505.76172 796.76562 505.76172 796.76562 L 505.76367 796.76562 C 505.76942 796.76828 507.23078 797.4429 507.36719 797.50586 C 507.36571 797.50903 507.0918 798.0957 507.0918 798.0957 C 507.09762 798.0984 508.55714 798.77306 508.69336 798.83594 C 508.6919 798.83908 508.41992 799.42383 508.41992 799.42383 C 508.42575 799.42653 509.88697 800.10107 510.02344 800.16406 C 510.02196 800.16723 509.74805 800.75391 509.74805 800.75391 C 509.75392 800.75661 511.21505 801.43115 511.35156 801.49414 C 511.3501 801.49729 511.07812 802.08203 511.07812 802.08203 C 511.08399 802.08473 512.54344 802.7594 512.67969 802.82227 C 512.67822 802.82541 512.40625 803.41016 512.40625 803.41016 C 512.41212 803.41286 513.87326 804.0874 514.00977 804.15039 C 514.0083 804.15354 513.73633 804.73828 513.73633 804.73828 L 513.73633 804.74023 C 513.74224 804.74293 515.20161 805.4176 515.33789 805.48047 C 515.33643 805.48361 515.06445 806.06836 515.06445 806.06836 C 515.07036 806.07106 516.52974 806.74573 516.66602 806.80859 C 516.66455 806.81174 516.39258 807.39648 516.39258 807.39648 L 516.39453 807.39648 C 516.40049 807.39923 517.86147 808.07369 517.99805 808.13672 C 517.99657 808.13989 517.72266 808.72656 517.72266 808.72656 C 517.72861 808.72935 519.1879 809.40385 519.32422 809.4668 C 519.32275 809.46994 519.05078 810.05469 519.05078 810.05469 L 519.05273 810.05469 C 519.05869 810.05747 520.51966 810.73185 520.65625 810.79492 C 520.65477 810.79809 520.38086 811.38477 520.38086 811.38477 C 520.38686 811.38755 521.84606 812.06205 521.98242 812.125 C 521.98096 812.12814 521.70898 812.71289 521.70898 812.71289 C 521.71503 812.71568 523.17585 813.39006 523.3125 813.45312 C 523.31102 813.45629 523.03711 814.04297 523.03711 814.04297 C 523.0432 814.04576 524.50394 814.72014 524.64062 814.7832 C 524.63916 814.78635 524.36719 815.37109 524.36719 815.37109 C 524.37327 815.37388 525.83233 816.04839 525.96875 816.11133 C 525.96729 816.11447 525.69531 816.69922 525.69531 816.69922 C 525.7014 816.70201 527.16214 817.37639 527.29883 817.43945 C 527.29736 817.4426 527.02539 818.02734 527.02539 818.02734 L 527.02539 818.0293 C 527.03152 818.03212 528.49049 818.70655 528.62695 818.76953 C 528.62549 818.77268 528.35352 819.35742 528.35352 819.35742 C 528.35964 819.36025 529.81862 820.03468 529.95508 820.09766 C 529.95361 820.1008 529.68164 820.68555 529.68164 820.68555 L 529.68359 820.6875 C 529.68972 820.69033 531.14869 821.36476 531.28516 821.42773 C 531.28369 821.43088 531.01172 822.01562 531.01172 822.01562 C 531.01789 822.01849 532.47679 822.69284 532.61328 822.75586 C 532.61182 822.759 532.33984 823.34375 532.33984 823.34375 L 532.3418 823.34375 C 532.34797 823.34662 533.80854 824.02084 533.94531 824.08398 C 533.94384 824.08715 533.66992 824.67383 533.66992 824.67383 C 533.81492 824.74083 571.07227 841.93555 571.07227 841.93555 L 571.07227 841.93359 C 571.14434 841.78774 590.04798 803.57079 608.25 766.77148 C 608.29871 766.90544 608.82617 768.35742 608.82617 768.35742 C 608.82678 768.35719 609.53015 768.07803 609.56445 768.06445 C 609.61532 768.20432 610.1543 769.68555 610.1543 769.68555 C 610.15488 769.68531 610.8601 769.40621 610.89453 769.39258 C 610.9455 769.53274 611.48438 771.01562 611.48438 771.01562 C 611.48496 771.01539 612.18838 770.73623 612.22266 770.72266 C 612.27352 770.86253 612.8125 772.34375 612.8125 772.34375 C 612.81306 772.34352 613.51832 772.06441 613.55273 772.05078 C 613.6037 772.19093 614.14258 773.67383 614.14258 773.67383 C 614.14314 773.67359 614.8466 773.39443 614.88086 773.38086 C 614.93172 773.52073 615.4707 775.00195 615.4707 775.00195 C 615.47124 775.00172 616.17475 774.72256 616.20898 774.70898 C 616.25985 774.84886 616.79883 776.33008 616.79883 776.33008 C 616.79939 776.32984 617.50465 776.05074 617.53906 776.03711 C 617.58993 776.177 618.12891 777.6582 618.12891 777.6582 C 618.12944 777.65799 618.83295 777.37879 618.86719 777.36523 C 618.91816 777.5054 619.45703 778.98828 619.45703 778.98828 C 619.45757 778.98807 620.16107 778.70886 620.19531 778.69531 C 620.24619 778.8352 620.78516 780.31641 620.78516 780.31641 C 620.78567 780.31622 621.49102 780.03703 621.52539 780.02344 C 621.57636 780.16361 622.11523 781.64648 622.11523 781.64648 C 622.11575 781.6463 622.8193 781.36705 622.85352 781.35352 C 622.90438 781.4934 623.44336 782.97461 623.44336 782.97461 C 623.44385 782.97442 624.14925 782.69523 624.18359 782.68164 C 624.23457 782.82182 624.77344 784.30469 624.77344 784.30469 C 624.77393 784.3045 625.47752 784.02525 625.51172 784.01172 C 625.56259 784.1516 626.10156 785.63281 626.10156 785.63281 C 626.10203 785.63262 626.80747 785.35343 626.8418 785.33984 C 626.89277 785.48001 627.43164 786.96289 627.43164 786.96289 C 627.43211 786.9627 628.13575 786.68345 628.16992 786.66992 C 628.22079 786.80981 628.75977 788.29102 628.75977 788.29102 C 628.76021 788.29083 629.4639 788.01158 629.49805 787.99805 L 630.08789 789.61914 C 630.08836 789.61895 630.7938 789.33976 630.82812 789.32617 C 630.8791 789.46636 631.41797 790.94922 631.41797 790.94922 C 631.41841 790.94903 632.1221 790.66978 632.15625 790.65625 C 632.20712 790.79614 632.74609 792.27734 632.74609 792.27734 C 632.74654 792.27718 633.45022 791.99788 633.48438 791.98438 C 633.53525 792.12429 634.07422 793.60547 634.07422 793.60547 C 634.07464 793.6053 634.78017 793.32607 634.81445 793.3125 C 634.86543 793.45269 635.4043 794.93555 635.4043 794.93555 C 635.40472 794.93538 636.10845 794.65609 636.14258 794.64258 C 636.19345 794.78248 636.73242 796.26367 636.73242 796.26367 C 636.73282 796.26351 637.43839 795.98427 637.47266 795.9707 C 637.52364 796.1109 638.0625 797.59375 638.0625 797.59375 C 638.0629 797.59359 638.76667 797.31429 638.80078 797.30078 C 638.85166 797.44069 639.39062 798.92188 639.39062 798.92188 C 639.391 798.92171 640.09662 798.64248 640.13086 798.62891 C 640.18184 798.76909 640.7207 800.25195 640.7207 800.25195 C 640.72108 800.25181 641.42489 799.97247 641.45898 799.95898 C 641.50986 800.09889 642.04883 801.58008 642.04883 801.58008 C 642.04918 801.57994 642.75304 801.3006 642.78711 801.28711 C 642.83799 801.42702 643.37695 802.9082 643.37695 802.9082 L 643.37891 802.9082 C 643.37926 802.90806 644.08138 802.63059 644.11523 802.61719 C 644.16612 802.75711 644.70508 804.23828 644.70508 804.23828 C 644.70543 804.23814 645.4111 803.95886 645.44531 803.94531 C 645.49619 804.08523 646.03516 805.56641 646.03516 805.56641 C 646.03551 805.56629 646.73937 805.2869 646.77344 805.27344 C 646.82432 805.41335 647.36328 806.89453 647.36328 806.89453 C 647.36361 806.89441 648.06932 806.61509 648.10352 806.60156 C 648.1545 806.74177 648.69336 808.22461 648.69336 808.22461 C 648.69369 808.22449 649.3976 807.94511 649.43164 807.93164 C 649.48252 808.07156 650.02148 809.55273 650.02148 809.55273 C 650.02179 809.55262 650.72754 809.27329 650.76172 809.25977 C 650.81271 809.39998 651.35156 810.88281 651.35156 810.88281 C 651.35187 810.8827 652.05582 810.60331 652.08984 810.58984 C 652.14073 810.72977 652.67969 812.21094 652.67969 812.21094 C 652.67997 812.21082 653.38577 811.9315 653.41992 811.91797 C 653.47081 812.05789 654.00977 813.53906 654.00977 813.53906 C 654.01005 813.53895 654.71404 813.25956 654.74805 813.24609 C 654.79904 813.38631 655.33789 814.86914 655.33789 814.86914 C 655.33815 814.86902 656.04399 814.5897 656.07812 814.57617 C 656.12901 814.7161 656.66797 816.19727 656.66797 816.19727 C 656.66823 816.19715 657.37052 815.91963 657.4043 815.90625 C 657.45518 816.04618 657.99414 817.52734 657.99414 817.52734 C 657.9944 817.52723 658.70024 817.2479 658.73438 817.23438 C 658.78526 817.37431 659.32422 818.85547 659.32422 818.85547 C 659.32448 818.85538 660.02852 818.57594 660.0625 818.5625 L 660.65234 820.18359 C 660.65258 820.18352 661.35847 819.90411 661.39258 819.89062 L 661.98242 821.51367 L 662.7207 821.2207 C 662.77159 821.36064 663.31055 822.8418 663.31055 822.8418 L 664.05078 822.54883 C 664.10178 822.68906 664.64062 824.17188 664.64062 824.17188 L 665.37891 823.87891 L 665.96875 825.5 L 666.70898 825.20703 L 667.29883 826.82812 L 668.03711 826.53516 L 668.62695 828.1582 L 669.36523 827.86523 L 669.95508 829.48633 L 670.69336 829.19336 L 671.2832 830.81641 L 672.02344 830.52344 L 672.61328 832.14453 L 673.35156 831.85156 L 673.94141 833.47266 L 674.68164 833.17969 L 675.27148 834.80273 L 676.00977 834.50977 L 676.59961 836.13086 L 677.33984 835.83789 L 677.92969 837.46094 L 678.66797 837.16797 L 679.25781 838.78906 L 679.99805 838.49609 L 680.58789 840.11719 L 681.32617 839.82422 L 681.91602 841.44727 L 682.6543 841.1543 L 683.24414 842.77539 L 683.98242 842.48242 L 684.57227 844.10547 L 685.3125 843.8125 L 685.90234 845.43359 L 686.64062 845.14062 L 687.23047 846.76172 L 687.9707 846.46875 L 688.56055 848.0918 L 689.29883 847.79883 L 689.88867 849.41992 L 690.62891 849.12695 L 691.21875 850.74805 L 712.00391 842.52148 L 712.64062 844.07227 L 713.31445 843.80273 L 713.9707 845.40234 L 714.64258 845.13477 L 715.29883 846.73047 L 715.97266 846.46094 L 716.62891 848.05859 L 717.30078 847.79102 L 717.95703 849.38867 L 718.62891 849.12109 L 719.28516 850.7168 L 719.95898 850.44727 L 720.61523 852.04688 L 721.28711 851.7793 L 721.94336 853.375 L 722.61523 853.10742 L 723.27148 854.70312 L 723.94531 854.43359 L 724.60156 856.0332 L 725.27344 855.76562 L 725.92969 857.36133 L 726.60352 857.0918 L 727.25977 858.69141 L 727.93164 858.42383 L 728.58789 860.01953 L 729.26172 859.75 L 729.91797 861.34766 L 730.58984 861.08008 L 731.24609 862.67773 L 731.91797 862.41016 L 732.57422 864.00586 L 733.24805 863.73633 L 733.9043 865.33594 L 775.67383 848.67188 L 775.67383 848.66992 C 775.48383 848.16492 677.9707 588.69727 677.9707 588.69727 C 697.3327 573.29927 708.61328 549.91283 708.61328 525.17383 C 708.61328 502.41409 699.23451 481.85362 684.14453 467.11523 C 683.7118 466.67267 683.27472 466.23535 682.83203 465.80273 C 682.39394 465.35445 681.95025 464.91269 681.50195 464.47461 C 681.06387 464.02632 680.62212 463.58262 680.17383 463.14453 C 679.73606 462.69658 679.29366 462.25417 678.8457 461.81641 C 678.40931 461.36986 677.96801 460.92861 677.52148 460.49219 C 677.08184 460.04222 676.63743 459.59789 676.1875 459.1582 C 675.75617 458.71684 675.32013 458.28108 674.87891 457.84961 C 674.42915 457.38906 673.97419 456.93416 673.51367 456.48438 C 673.08608 456.04708 672.6541 455.61508 672.2168 455.1875 C 671.76837 454.72838 671.31459 454.2746 670.85547 453.82617 C 670.42273 453.3836 669.98566 452.94629 669.54297 452.51367 C 669.10488 452.06539 668.66119 451.62363 668.21289 451.18555 C 667.77481 450.73725 667.33305 450.29356 666.88477 449.85547 C 666.45215 449.41278 666.01483 448.9757 665.57227 448.54297 C 665.12384 448.08385 664.67006 447.63006 664.21094 447.18164 C 663.7782 446.73908 663.34112 446.30175 662.89844 445.86914 C 662.46711 445.42778 662.03107 444.99202 661.58984 444.56055 C 661.14008 444.1 660.68513 443.6451 660.22461 443.19531 C 659.79702 442.75801 659.36504 442.32602 658.92773 441.89844 C 658.47931 441.43932 658.02553 440.98553 657.56641 440.53711 C 657.13882 440.09981 656.70683 439.66782 656.26953 439.24023 C 655.8265 438.78664 655.37925 438.33769 654.92578 437.89453 C 654.48262 437.44106 654.03368 436.99381 653.58008 436.55078 C 653.14734 436.10822 652.71026 435.67089 652.26758 435.23828 C 651.82933 434.78983 651.38596 434.34644 650.9375 433.9082 C 650.49974 433.46025 650.05733 433.01784 649.60938 432.58008 C 649.17805 432.13871 648.742 431.70296 648.30078 431.27148 C 647.85102 430.81093 647.39607 430.35604 646.93555 429.90625 C 646.50796 429.46895 646.07597 429.03696 645.63867 428.60938 C 645.18888 428.14886 644.73399 427.6939 644.27344 427.24414 C 643.84711 426.80818 643.41645 426.37747 642.98047 425.95117 C 642.53744 425.49757 642.09019 425.04863 641.63672 424.60547 C 641.19356 424.152 640.74461 423.70475 640.29102 423.26172 C 639.85828 422.81915 639.4212 422.38183 638.97852 421.94922 C 638.54212 421.50266 638.10082 421.06143 637.6543 420.625 C 637.21465 420.17503 636.77024 419.73071 636.32031 419.29102 C 635.88898 418.84965 635.45294 418.4139 635.01172 417.98242 C 634.56196 417.52187 634.10701 417.06698 633.64648 416.61719 C 633.2189 416.17989 632.78691 415.7479 632.34961 415.32031 C 631.89982 414.85979 631.44493 414.40483 630.98438 413.95508 C 630.5529 413.51386 630.11715 413.07781 629.67578 412.64648 C 629.24445 412.20512 628.80841 411.76937 628.36719 411.33789 C 627.91743 410.87734 627.46247 410.42245 627.00195 409.97266 C 626.56922 409.53009 626.13214 409.09277 625.68945 408.66016 C 625.25306 408.2136 624.81176 407.77237 624.36523 407.33594 C 623.92559 406.88597 623.48118 406.44165 623.03125 406.00195 C 622.59863 405.55927 622.16132 405.12219 621.71875 404.68945 C 621.27033 404.23034 620.81654 403.77655 620.35742 403.32812 C 619.92983 402.89083 619.49785 402.45883 619.06055 402.03125 C 618.61075 401.57073 618.15587 401.11577 617.69531 400.66602 C 617.26383 400.22479 616.82809 399.78875 616.38672 399.35742 C 615.95539 398.91605 615.51935 398.48031 615.07812 398.04883 C 614.62837 397.58827 614.17341 397.13339 613.71289 396.68359 C 613.2853 396.2463 612.85332 395.8143 612.41602 395.38672 C 611.96759 394.9276 611.51381 394.47381 611.05469 394.02539 C 610.62195 393.58282 610.18487 393.14551 609.74219 392.71289 C 609.30957 392.27021 608.87226 391.83312 608.42969 391.40039 C 607.98126 390.94127 607.52748 390.48748 607.06836 390.03906 C 606.64077 389.60176 606.20879 389.16977 605.77148 388.74219 C 605.32169 388.28167 604.8668 387.82671 604.40625 387.37695 C 603.97477 386.93573 603.53902 386.49969 603.09766 386.06836 C 602.66633 385.62699 602.23028 385.19124 601.78906 384.75977 C 601.3393 384.29921 600.88435 383.84432 600.42383 383.39453 C 599.99624 382.95723 599.56426 382.52524 599.12695 382.09766 C 598.67853 381.63854 598.22475 381.18475 597.76562 380.73633 C 597.33289 380.29376 596.89581 379.85644 596.45312 379.42383 C 596.01343 378.9739 595.56911 378.52949 595.11914 378.08984 C 594.68271 377.64332 594.24148 377.20202 593.79492 376.76562 C 593.36231 376.32294 592.92499 375.88586 592.48242 375.45312 C 592.03263 374.99261 591.57774 374.53765 591.11719 374.08789 C 590.68571 373.64667 590.24996 373.21062 589.80859 372.7793 C 589.37726 372.33793 588.94122 371.90218 588.5 371.4707 C 588.05024 371.01015 587.59529 370.55526 587.13477 370.10547 C 586.70718 369.66817 586.27519 369.23618 585.83789 368.80859 C 585.3881 368.34808 584.93321 367.89311 584.47266 367.44336 C 584.04118 367.00214 583.60543 366.5661 583.16406 366.13477 C 582.72437 365.68484 582.28005 365.24043 581.83008 364.80078 C 581.39365 364.35426 580.95241 363.91296 580.50586 363.47656 C 580.07324 363.03388 579.63593 362.59679 579.19336 362.16406 C 578.74357 361.70354 578.28868 361.24858 577.82812 360.79883 C 577.39665 360.35761 576.9609 359.92156 576.51953 359.49023 C 576.0882 359.04887 575.65216 358.61312 575.21094 358.18164 C 574.76118 357.72109 574.30622 357.2662 573.8457 356.81641 C 573.41297 356.37384 572.97589 355.93652 572.5332 355.50391 C 572.09511 355.05562 571.65142 354.61386 571.20312 354.17578 C 570.76504 353.72748 570.32329 353.2838 569.875 352.8457 C 569.43531 352.39578 568.99099 351.95137 568.54102 351.51172 C 568.10459 351.0652 567.66335 350.62389 567.2168 350.1875 C 566.77903 349.73955 566.33662 349.29713 565.88867 348.85938 C 565.4522 348.41274 565.01106 347.97166 564.56445 347.53516 C 564.12488 347.08527 563.68032 346.64079 563.23047 346.20117 C 562.79914 345.7598 562.3631 345.32406 561.92188 344.89258 C 561.47212 344.43202 561.01716 343.97714 560.55664 343.52734 C 560.12905 343.09004 559.69707 342.65806 559.25977 342.23047 C 558.80997 341.76995 558.35509 341.31499 557.89453 340.86523 C 557.46305 340.42402 557.02731 339.98797 556.58594 339.55664 C 556.14624 339.10671 555.70193 338.6623 555.25195 338.22266 C 554.81552 337.77613 554.37429 337.33484 553.92773 336.89844 C 553.48997 336.45049 553.04756 336.00807 552.59961 335.57031 C 552.16828 335.12895 551.73224 334.69319 551.29102 334.26172 C 550.84126 333.80117 550.3863 333.34627 549.92578 332.89648 C 549.49819 332.45918 549.06621 332.0272 548.62891 331.59961 C 548.18048 331.14049 547.7267 330.68671 547.26758 330.23828 C 546.83999 329.80098 546.40801 329.36899 545.9707 328.94141 C 545.52091 328.48088 545.06602 328.02593 544.60547 327.57617 C 544.17399 327.13495 543.73824 326.6989 543.29688 326.26758 C 542.86426 325.82489 542.42694 325.38781 541.98438 324.95508 C 541.53595 324.49596 541.08217 324.04217 540.62305 323.59375 C 540.19031 323.15119 539.75323 322.71386 539.31055 322.28125 C 538.87922 321.83989 538.44318 321.40413 538.00195 320.97266 C 537.55219 320.51211 537.09724 320.05721 536.63672 319.60742 C 536.20913 319.17012 535.77715 318.73813 535.33984 318.31055 C 534.89142 317.85143 534.43764 317.39764 533.97852 316.94922 C 533.55093 316.51192 533.11894 316.07993 532.68164 315.65234 C 532.23185 315.19182 531.77696 314.73687 531.31641 314.28711 C 530.88493 313.84589 530.44918 313.40984 530.00781 312.97852 C 529.5752 312.53583 529.13788 312.09875 528.69531 311.66602 C 528.24689 311.20689 527.79311 310.75311 527.33398 310.30469 C 526.90125 309.86212 526.46417 309.4248 526.02148 308.99219 C 525.59016 308.55082 525.15411 308.11507 524.71289 307.68359 C 524.26313 307.22304 523.80818 306.76815 523.34766 306.31836 C 522.92007 305.88106 522.48808 305.44907 522.05078 305.02148 C 521.60236 304.56236 521.14857 304.10858 520.68945 303.66016 C 520.26187 303.22285 519.82988 302.79087 519.39258 302.36328 C 518.94279 301.90276 518.4879 301.44781 518.02734 300.99805 C 517.59587 300.55682 517.16012 300.12078 516.71875 299.68945 C 516.28613 299.24677 515.84882 298.80969 515.40625 298.37695 C 514.95783 297.91783 514.50404 297.46405 514.04492 297.01562 C 513.61219 296.57306 513.17511 296.13574 512.73242 295.70312 C 512.30109 295.26176 511.86505 294.82601 511.42383 294.39453 C 510.97407 293.93398 510.51912 293.47909 510.05859 293.0293 C 509.63101 292.592 509.19902 292.16001 508.76172 291.73242 C 508.31329 291.2733 507.85951 290.81952 507.40039 290.37109 C 506.9728 289.93379 506.54082 289.50181 506.10352 289.07422 C 505.66049 288.62062 505.21324 288.17167 504.75977 287.72852 C 504.31661 287.27504 503.86766 286.8278 503.41406 286.38477 C 502.98133 285.9422 502.54425 285.50488 502.10156 285.07227 C 501.66516 284.62571 501.22387 284.18448 500.77734 283.74805 C 500.3377 283.29807 499.89329 282.85376 499.44336 282.41406 C 499.01404 281.97475 498.57975 281.54084 498.14062 281.11133 C 497.68898 280.64876 497.23203 280.19195 496.76953 279.74023 C 496.34194 279.30294 495.90996 278.87094 495.47266 278.44336 C 495.02286 277.98284 494.56798 277.52788 494.10742 277.07812 C 493.67594 276.6369 493.2402 276.20086 492.79883 275.76953 C 492.36629 275.32692 491.92882 274.88969 491.48633 274.45703 C 491.03782 273.99782 490.5842 273.54421 490.125 273.0957 C 489.69226 272.65314 489.25518 272.21582 488.8125 271.7832 C 488.3761 271.33665 487.9348 270.89541 487.48828 270.45898 C 487.04863 270.00901 486.60422 269.56469 486.1543 269.125 C 485.72297 268.68363 485.28693 268.24788 484.8457 267.81641 C 484.39594 267.35586 483.94099 266.90096 483.48047 266.45117 C 483.05288 266.01387 482.6209 265.58188 482.18359 265.1543 C 481.7338 264.69378 481.27891 264.23882 480.81836 263.78906 C 480.38688 263.34784 479.95113 262.9118 479.50977 262.48047 C 479.07167 262.03218 478.62798 261.59043 478.17969 261.15234 C 477.7416 260.70405 477.29985 260.26036 476.85156 259.82227 C 476.4138 259.37431 475.97139 258.9319 475.52344 258.49414 C 475.08704 258.04759 474.64574 257.60635 474.19922 257.16992 C 473.75957 256.71995 473.31516 256.27563 472.86523 255.83594 C 472.43262 255.39325 471.9953 254.95617 471.55273 254.52344 C 471.10431 254.06432 470.65053 253.61053 470.19141 253.16211 C 469.76382 252.72481 469.33183 252.29282 468.89453 251.86523 C 468.44474 251.40471 467.98985 250.94976 467.5293 250.5 C 467.09782 250.05878 466.66207 249.62274 466.2207 249.19141 C 465.78261 248.74312 465.33892 248.30137 464.89062 247.86328 C 464.45254 247.41498 464.01079 246.9713 463.5625 246.5332 C 463.12988 246.09052 462.69257 245.65344 462.25 245.2207 C 461.80158 244.76159 461.34779 244.3078 460.88867 243.85938 C 460.45594 243.41681 460.01886 242.97949 459.57617 242.54688 C 459.13648 242.09695 458.69216 241.65254 458.24219 241.21289 C 457.80576 240.76637 457.36452 240.32507 456.91797 239.88867 C 456.48535 239.44599 456.04804 239.0089 455.60547 238.57617 C 455.15568 238.11565 454.70079 237.66069 454.24023 237.21094 C 453.80876 236.76972 453.37301 236.33367 452.93164 235.90234 C 452.50031 235.46098 452.06427 235.02523 451.62305 234.59375 C 451.17329 234.1332 450.71833 233.67831 450.25781 233.22852 C 449.83022 232.79121 449.39824 232.35923 448.96094 231.93164 C 448.51115 231.47112 448.05626 231.01617 447.5957 230.56641 C 447.16422 230.12518 446.72848 229.68914 446.28711 229.25781 C 445.84742 228.80789 445.4031 228.36348 444.95312 227.92383 C 444.5167 227.47731 444.07546 227.03601 443.62891 226.59961 C 443.19629 226.15693 442.75897 225.71984 442.31641 225.28711 C 441.86661 224.82659 441.41173 224.37163 440.95117 223.92188 C 440.51969 223.48065 440.08395 223.04461 439.64258 222.61328 C 439.21125 222.17191 438.77521 221.73617 438.33398 221.30469 C 437.88423 220.84413 437.42927 220.38925 436.96875 219.93945 C 436.54116 219.50215 436.10918 219.07017 435.67188 218.64258 C 435.22208 218.18206 434.76719 217.7271 434.30664 217.27734 C 433.87516 216.83612 433.43942 216.40008 432.99805 215.96875 C 432.55835 215.51882 432.11403 215.07441 431.66406 214.63477 C 431.22763 214.18824 430.7864 213.74694 430.33984 213.31055 C 429.90722 212.86787 429.46992 212.43078 429.02734 211.99805 C 428.57876 211.53877 428.1253 211.08529 427.66602 210.63672 C 427.23328 210.19415 426.7962 209.75683 426.35352 209.32422 C 425.92219 208.88285 425.48614 208.4471 425.04492 208.01562 C 424.59516 207.55507 424.14021 207.10018 423.67969 206.65039 C 423.2521 206.21309 422.82011 205.7811 422.38281 205.35352 C 421.93302 204.89299 421.47813 204.43804 421.01758 203.98828 C 420.5861 203.54706 420.15035 203.11102 419.70898 202.67969 C 419.26929 202.22976 418.82497 201.78535 418.375 201.3457 C 417.93857 200.89918 417.49734 200.45788 417.05078 200.02148 C 416.61301 199.57353 416.17061 199.13112 415.72266 198.69336 C 415.29133 198.25199 414.85528 197.81624 414.41406 197.38477 C 413.9643 196.92421 413.50935 196.46932 413.04883 196.01953 C 412.62253 195.58355 412.19182 195.15289 411.75586 194.72656 C 411.3061 194.26601 410.85115 193.81112 410.39062 193.36133 C 409.96304 192.92403 409.53105 192.49204 409.09375 192.06445 C 408.64533 191.60533 408.19154 191.15155 407.73242 190.70312 C 407.29969 190.26056 406.86261 189.82324 406.41992 189.39062 C 405.98216 188.94267 405.53975 188.50026 405.0918 188.0625 C 404.65356 187.61404 404.21017 187.17067 403.76172 186.73242 C 403.32396 186.28447 402.88155 185.84206 402.43359 185.4043 C 402.00226 184.96293 401.56622 184.52718 401.125 184.0957 C 400.67524 183.63515 400.22029 183.18026 399.75977 182.73047 C 399.33218 182.29317 398.90019 181.86118 398.46289 181.43359 C 398.01447 180.97447 397.56068 180.52069 397.10156 180.07227 C 396.67398 179.63496 396.24199 179.20298 395.80469 178.77539 C 395.35626 178.31627 394.90248 177.86249 394.44336 177.41406 C 394.01062 176.97149 393.57354 176.53418 393.13086 176.10156 C 392.69824 175.65888 392.26093 175.2218 391.81836 174.78906 C 391.36994 174.32994 390.91615 173.87616 390.45703 173.42773 C 390.0243 172.98517 389.58722 172.54785 389.14453 172.11523 C 388.7132 171.67387 388.27716 171.23812 387.83594 170.80664 C 387.38618 170.34609 386.93122 169.89119 386.4707 169.44141 C 386.04312 169.0041 385.61113 168.57212 385.17383 168.14453 C 384.7254 167.68541 384.27162 167.23163 383.8125 166.7832 C 383.38491 166.3459 382.95293 165.91392 382.51562 165.48633 C 382.06583 165.02581 381.61094 164.57085 381.15039 164.12109 C 380.71891 163.67987 380.28317 163.24383 379.8418 162.8125 C 379.40918 162.36982 378.97186 161.93274 378.5293 161.5 C 378.08087 161.04088 377.62709 160.5871 377.16797 160.13867 C 376.73523 159.6961 376.29815 159.25879 375.85547 158.82617 C 375.42414 158.3848 374.9881 157.94906 374.54688 157.51758 C 374.09712 157.05703 373.64216 156.60213 373.18164 156.15234 C 372.75405 155.71504 372.32207 155.28306 371.88477 154.85547 C 371.43634 154.39635 370.98256 153.94256 370.52344 153.49414 C 370.09585 153.05684 369.66386 152.62485 369.22656 152.19727 C 368.77677 151.73674 368.32188 151.28179 367.86133 150.83203 C 367.42985 150.39081 366.9941 149.95477 366.55273 149.52344 C 366.12012 149.08075 365.6828 148.64367 365.24023 148.21094 C 364.79181 147.75182 364.33803 147.29803 363.87891 146.84961 C 363.44617 146.40704 363.00909 145.96973 362.56641 145.53711 C 362.13507 145.09574 361.69904 144.65999 361.25781 144.22852 C 360.80805 143.76797 360.3531 143.31307 359.89258 142.86328 C 359.46499 142.42598 359.03301 141.99399 358.5957 141.56641 C 358.14728 141.10728 357.6935 140.6535 357.23438 140.20508 C 356.80679 139.76778 356.3748 139.33579 355.9375 138.9082 C 355.48771 138.44768 355.03282 137.99273 354.57227 137.54297 C 354.14079 137.10175 353.70504 136.6657 353.26367 136.23438 C 352.82591 135.78642 352.3835 135.34401 351.93555 134.90625 C 351.49915 134.4597 351.05785 134.01846 350.61133 133.58203 C 350.17168 133.13206 349.72727 132.68774 349.27734 132.24805 C 348.84802 131.80873 348.41373 131.37483 347.97461 130.94531 C 347.52297 130.48274 347.06601 130.02594 346.60352 129.57422 C 346.17593 129.13692 345.74394 128.70493 345.30664 128.27734 C 344.85685 127.81682 344.40196 127.36187 343.94141 126.91211 C 343.50993 126.47089 343.07418 126.03484 342.63281 125.60352 C 342.19472 125.15523 341.75103 124.71348 341.30273 124.27539 C 340.86465 123.82709 340.4229 123.3834 339.97461 122.94531 C 339.54199 122.50263 339.10468 122.06555 338.66211 121.63281 C 338.21369 121.17369 337.7599 120.71991 337.30078 120.27148 C 336.86805 119.82892 336.43097 119.3916 335.98828 118.95898 C 335.55695 118.51762 335.12091 118.08187 334.67969 117.65039 C 334.22992 117.18984 333.77498 116.73495 333.31445 116.28516 C 332.88687 115.84785 332.45488 115.41587 332.01758 114.98828 C 331.56779 114.52776 331.1129 114.07281 330.65234 113.62305 C 330.22087 113.18182 329.78512 112.74578 329.34375 112.31445 C 328.90566 111.86616 328.46197 111.42441 328.01367 110.98633 C 327.57559 110.53803 327.13384 110.09434 326.68555 109.65625 C 326.25293 109.21357 325.81561 108.77648 325.37305 108.34375 C 324.92462 107.88463 324.47084 107.43085 324.01172 106.98242 C 323.57898 106.53985 323.1419 106.10254 322.69922 105.66992 C 322.26789 105.22855 321.83185 104.79281 321.39062 104.36133 C 320.94086 103.90077 320.48592 103.44589 320.02539 102.99609 C 319.5978 102.55879 319.16582 102.1268 318.72852 101.69922 C 318.27872 101.2387 317.82384 100.78375 317.36328 100.33398 C 316.9318 99.892761 316.49606 99.456721 316.05469 99.025391 C 315.61659 98.577101 315.17291 98.135351 314.72461 97.697266 C 314.28652 97.248969 313.84477 96.80528 313.39648 96.367188 C 312.96387 95.924503 312.52655 95.487422 312.08398 95.054688 C 311.63556 94.595568 311.18178 94.141782 310.72266 93.693359 C 310.28992 93.250791 309.85284 92.813477 309.41016 92.380859 C 308.97206 91.93257 308.52837 91.49082 308.08008 91.052734 C 307.64199 90.604438 307.20024 90.160749 306.75195 89.722656 C 306.31934 89.279972 305.88202 88.842891 305.43945 88.410156 C 304.98966 87.949633 304.53477 87.494683 304.07422 87.044922 C 303.64274 86.603698 303.20699 86.167659 302.76562 85.736328 C 302.3343 85.294959 301.89825 84.859214 301.45703 84.427734 C 301.00727 83.967179 300.55232 83.512293 300.0918 83.0625 C 299.66421 82.625198 299.23222 82.193212 298.79492 81.765625 C 298.3465 81.306504 297.89272 80.852721 297.43359 80.404297 C 297.00086 79.96173 296.56378 79.524412 296.12109 79.091797 C 295.683 78.643509 295.23931 78.201756 294.79102 77.763672 C 294.35293 77.315377 293.91118 76.871685 293.46289 76.433594 C 293.03027 75.990911 292.59296 75.553828 292.15039 75.121094 C 291.7006 74.66057 291.24571 74.20562 290.78516 73.755859 C 290.35368 73.314636 289.91793 72.878597 289.47656 72.447266 C 289.04523 72.005896 288.60919 71.570151 288.16797 71.138672 C 273.4293 56.046199 252.86732 46.664215 230.10547 46.664062 L 229.94141 46.664062 z " />
    <path
       id="path1983"
       style="font-style:normal;font-variant:normal;font-weight:normal;font-stretch:normal;font-size:465.638px;line-height:1.25;font-family:'DejaVu Sans Mono';-inkscape-font-specification:'DejaVu Sans Mono, Normal';font-variant-ligatures:normal;font-variant-caps:normal;font-variant-numeric:normal;font-variant-east-asian:normal;fill:#ffffff;fill-opacity:1;stroke:none;stroke-width:12.6483;stroke-opacity:1"
       d="M 228.61328 45.335938 A 81.166578 81.166578 0 0 0 147.60938 126.50195 A 81.166578 81.166578 0 0 0 228.77734 207.66797 A 81.166578 81.166578 0 0 0 236.87891 207.26172 L 236.83008 207.28125 L 134.99805 426.00195 L 172.40039 443.26367 L 259.06445 268.05273 L 293.09961 357.79883 L 261.54102 369.75391 L 270.81445 394.49219 L 302.32422 382.53906 L 310.86523 404.64844 L 279.50781 416.22266 L 292.54688 452.07812 L 324.11328 439.58203 L 335.23242 466.66406 L 377.00195 450 L 279.29883 190.02734 A 81.166578 81.166578 0 0 0 309.94336 126.50195 A 81.166578 81.166578 0 0 0 228.77734 45.335938 A 81.166578 81.166578 0 0 0 228.61328 45.335938 z M 228.71484 91.748047 A 34.752661 34.752661 0 0 1 228.77734 91.748047 A 34.752661 34.752661 0 0 1 263.5293 126.50195 A 34.752661 34.752661 0 0 1 228.77734 161.25586 A 34.752661 34.752661 0 0 1 194.02344 126.50195 A 34.752661 34.752661 0 0 1 228.71484 91.748047 z " />
  </g>
</svg>
